<?xml version="1.0" encoding="utf-8"?>
<!-- Generator: Adobe Illustrator 23.0.4, SVG Export Plug-In . SVG Version: 6.00 Build 0)  -->
<svg version="1.1" id="圖層_1" xmlns="http://www.w3.org/2000/svg" xmlns:xlink="http://www.w3.org/1999/xlink" x="0px" y="0px"
	 viewBox="0 0 229.6 147.7" style="enable-background:new 0 0 229.6 147.7;" xml:space="preserve">
<style type="text/css">
	.st0{fill:none;stroke:#FF9101;stroke-width:4;}
	.st1{fill:#FFA014;}
</style>
<g id="工作區域_1">
	<g id="box_2">
		<g>
			
				<image style="overflow:visible;opacity:5.000000e-02;" width="223" height="132" xlink:href="DE5EDBF04F4A952D.png"  transform="matrix(1 0 0 1 6.5693 15.6798)">
			</image>
			<g>
				<path class="st0" d="M10.4,34.3v91.4c0,8,6.6,14.5,14.7,14.5h185.7c8.1,0,14.7-6.5,14.7-14.5V29.7c0-8-6.6-14.5-14.7-14.5H25.5"
					/>
			</g>
		</g>
	</g>
	<path class="st1" d="M10.4,0C4.7,0,0,4.7,0,10.4c0,8.6,9.4,17,9.8,17.3c0.2,0.2,0.4,0.2,0.6,0.2c0.2,0,0.5-0.1,0.6-0.2
		c0.4-0.3,9.8-8.7,9.8-17.3C20.9,4.7,16.2,0,10.4,0z M10.4,7.5c1.6,0,2.9,1.3,2.9,2.9s-1.3,2.9-2.9,2.9s-2.9-1.3-2.9-2.9
		S8.8,7.5,10.4,7.5z"/>
</g>
</svg>
