<?xml version="1.0" encoding="utf-8"?>
<!-- Generator: Adobe Illustrator 23.0.4, SVG Export Plug-In . SVG Version: 6.00 Build 0)  -->
<svg version="1.1" id="圖層_1" xmlns="http://www.w3.org/2000/svg" xmlns:xlink="http://www.w3.org/1999/xlink" x="0px" y="0px"
	 viewBox="0 0 35 35" style="enable-background:new 0 0 35 35;" xml:space="preserve">
<style type="text/css">
	.st0{fill:#231815;}
	.st1{fill:#FFFFFF;}
</style>
<circle class="st0" cx="17.5" cy="17.5" r="17.5"/>
<g>
	<path class="st1" d="M25.7,11.3c-0.3-0.1-0.6,0-0.8,0.2l-3,3.8l-3.8-5.9c-0.2-0.3-0.7-0.4-1-0.2c0,0-0.1,0.1-0.2,0.2l-3.8,5.9
		l-3-3.8c-0.2-0.3-0.6-0.3-1-0.1C9.1,11.6,9,11.8,9,12.1l1.9,10.6c0,0.5,0.4,0.8,0.9,0.9h11.5c0.5,0,0.9-0.4,0.9-0.9L26,12.1
		C26.1,11.7,25.9,11.5,25.7,11.3z"/>
	<path class="st1" d="M23,24.6H12c-0.4,0-0.7,0.3-0.7,0.7s0.3,0.7,0.7,0.7h11c0.4,0,0.7-0.3,0.7-0.7S23.4,24.6,23,24.6z"/>
</g>
</svg>
