<?xml version="1.0" encoding="utf-8"?>
<!-- Generator: Adobe Illustrator 23.0.4, SVG Export Plug-In . SVG Version: 6.00 Build 0)  -->
<svg version="1.1" id="score_middle_excellent" xmlns="http://www.w3.org/2000/svg" xmlns:xlink="http://www.w3.org/1999/xlink"
	 x="0px" y="0px" viewBox="0 0 52.8 57.8" style="enable-background:new 0 0 52.8 57.8;" xml:space="preserve">
<style type="text/css">
	.st0{fill:#D4AF37;}
</style>
<title>icon_score_master_black</title>
<path class="st0" d="M51.8,7.7c-0.8-0.4-1.7-0.1-2.1,0.6L40,21.5L27.9,0.9c-0.4-0.8-1.5-1.1-2.3-0.7c-0.1,0-0.1,0.1-0.1,0.1
	c-0.2,0.2-0.4,0.4-0.6,0.6L12.8,21.5L3.2,8.2c-0.5-0.8-1.6-1-2.3-0.4c-0.1,0-0.1,0.1-0.2,0.1C0.1,8.4-0.1,9.1,0,9.8l5.2,32.5
	c0,1.3,1.1,2.4,2.4,2.5h37.6c1.3-0.1,2.4-1.2,2.4-2.5l5.2-32.5C52.9,8.9,52.5,8.1,51.8,7.7z"/>
<path class="st0" d="M43.5,51.2H9.2c-1.8,0.2-3.2,1.8-3,3.6c0.2,1.6,1.4,2.9,3,3h34.4c1.8-0.2,3.2-1.8,3-3.6
	C46.4,52.6,45.1,51.4,43.5,51.2z"/>
</svg>
