<?xml version="1.0" encoding="utf-8"?>
<!-- Generator: Adobe Illustrator 23.0.4, SVG Export Plug-In . SVG Version: 6.00 Build 0)  -->
<svg version="1.1" id="Capa_1" xmlns="http://www.w3.org/2000/svg" xmlns:xlink="http://www.w3.org/1999/xlink" x="0px" y="0px"
	 viewBox="0 0 297 297" style="enable-background:new 0 0 297 297;" xml:space="preserve">
<style type="text/css">
	.st0{fill:#FDF8DF;}
</style>
<path class="st0" d="M148.5,0C87.4,0,37.7,49.7,37.7,110.8c0,91,99.7,179.9,104,183.6c1.9,1.7,4.4,2.6,6.8,2.6
	c2.4,0,4.8-0.9,6.8-2.6c4.2-3.7,104-92.6,104-183.6C259.3,49.7,209.6,0,148.5,0z M148.5,79.7c17,0,30.8,14,30.8,31.1
	s-13.8,31.1-30.8,31.1s-30.8-14-30.8-31.1S131.5,79.7,148.5,79.7z"/>
</svg>
