<?xml version="1.0" encoding="utf-8"?>
<!-- Generator: Adobe Illustrator 23.0.4, SVG Export Plug-In . SVG Version: 6.00 Build 0)  -->
<svg version="1.1" id="icon" xmlns="http://www.w3.org/2000/svg" xmlns:xlink="http://www.w3.org/1999/xlink" x="0px" y="0px"
	 viewBox="0 0 48 48" style="enable-background:new 0 0 48 48;" xml:space="preserve">
<style type="text/css">
	.st0{fill:url(#SVGID_1_);}
	.st1{fill:url(#SVGID_2_);}
</style>
<title>ranking</title>
<linearGradient id="SVGID_1_" gradientUnits="userSpaceOnUse" x1="24.0003" y1="36.9346" x2="24.0003" y2="5.2334">
	<stop  offset="8.236194e-02" style="stop-color:#CC8D3E"/>
	<stop  offset="0.3082" style="stop-color:#D9A550"/>
	<stop  offset="0.783" style="stop-color:#FBE27E"/>
	<stop  offset="0.8317" style="stop-color:#FFE983"/>
	<stop  offset="1" style="stop-color:#FFFFC5"/>
</linearGradient>
<path class="st0" d="M41.9,10.2c-0.6-0.3-1.4-0.1-1.8,0.4l-6.5,8.3l-8.3-13c-0.5-0.7-1.5-0.9-2.2-0.4c-0.1,0.1-0.3,0.2-0.4,0.4
	l-8.3,13l-6.5-8.3C7.4,10,6.5,9.9,5.8,10.4c-0.4,0.3-0.6,0.9-0.5,1.4l4.1,23.3c0.1,1,0.9,1.8,1.9,1.9h25.3c1,0,1.9-0.8,1.9-1.9
	l4.1-23.3C42.8,11.1,42.5,10.5,41.9,10.2z"/>
<linearGradient id="SVGID_2_" gradientUnits="userSpaceOnUse" x1="24.0004" y1="42.3126" x2="24.0004" y2="39.3126">
	<stop  offset="8.236194e-02" style="stop-color:#CC8D3E"/>
	<stop  offset="0.3082" style="stop-color:#D9A550"/>
	<stop  offset="0.783" style="stop-color:#FBE27E"/>
	<stop  offset="0.8317" style="stop-color:#FFE983"/>
	<stop  offset="1" style="stop-color:#FFFFC5"/>
</linearGradient>
<path class="st1" d="M36.1,39.3H11.9c-0.8,0-1.5,0.7-1.5,1.5s0.7,1.5,1.5,1.5h24.2c0.8,0,1.5-0.7,1.5-1.5S36.9,39.3,36.1,39.3z"/>
</svg>
