<?xml version="1.0" encoding="utf-8"?>
<!-- Generator: Adobe Illustrator 23.0.4, SVG Export Plug-In . SVG Version: 6.00 Build 0)  -->
<svg version="1.1" id="icon" xmlns="http://www.w3.org/2000/svg" xmlns:xlink="http://www.w3.org/1999/xlink" x="0px" y="0px"
	 viewBox="0 0 48 48" style="enable-background:new 0 0 48 48;" xml:space="preserve">
<style type="text/css">
	.st0{fill:#D2D2D2;}
</style>
<title>search</title>
<path class="st0" d="M42.4,37.8l-9.3-9.3c4.6-7.1,2.5-16.6-4.6-21.1S11.9,4.9,7.4,12S4.9,28.5,12,33.1c5,3.2,11.5,3.2,16.6,0
	l9.3,9.3c1.2,1.2,3.2,1.2,4.5,0l0.1-0.1C43.6,41,43.6,39,42.4,37.8z M8,20.3C8,13.5,13.5,8,20.3,8c6.8,0,12.3,5.5,12.3,12.3
	c0,6.8-5.5,12.3-12.3,12.3c0,0,0,0,0,0C13.5,32.5,8,27,8,20.3z"/>
</svg>
