<?xml version="1.0" encoding="utf-8"?>
<!-- Generator: Adobe Illustrator 23.0.4, SVG Export Plug-In . SVG Version: 6.00 Build 0)  -->
<svg version="1.1" id="icon" xmlns="http://www.w3.org/2000/svg" xmlns:xlink="http://www.w3.org/1999/xlink" x="0px" y="0px"
	 viewBox="0 0 17.1 14.2" style="enable-background:new 0 0 17.1 14.2;" xml:space="preserve">
<style type="text/css">
	.st0{fill:#FFA014;}
</style>
<title>wannago</title>
<path class="st0" d="M13.5,0.2c-1.5-0.4-3.6,0-5,2.1c-1.4-2.1-3.4-2.5-5-2.1c-2.5,0.8-4,3.2-3.5,5.7c0.5,3.3,3,4.8,5.2,6.1
	c1,0.5,1.9,1.2,2.8,2c0.3,0.3,0.6,0.3,0.9,0l0,0c0.8-0.8,1.8-1.5,2.8-2c2.2-1.3,4.7-2.8,5.2-6.1C17.5,3.4,15.9,0.9,13.5,0.2z"/>
</svg>
